<?xml version="1.0" standalone="no"?>
<!DOCTYPE svg PUBLIC "-//W3C//DTD SVG 20010904//EN"
 "http://www.w3.org/TR/2001/REC-SVG-20010904/DTD/svg10.dtd">
<svg version="1.0" xmlns="http://www.w3.org/2000/svg"
 width="618.000000pt" height="618.000000pt" viewBox="0 0 618.000000 618.000000"
 preserveAspectRatio="xMidYMid meet">
<metadata>
Created by potrace 1.14, written by Peter Selinger 2001-2017
</metadata>
<g transform="translate(0.000000,618.000000) scale(0.100000,-0.100000)"
fill="#000000" stroke="none">
<path d="M1059 6176 c-2 -2 -24 -6 -49 -9 -157 -20 -351 -99 -495 -202 -261
-186 -430 -465 -484 -800 -13 -82 -14 -4012 -1 -4120 15 -123 19 -144 50 -237
61 -182 150 -327 285 -463 169 -171 364 -275 625 -332 53 -11 4091 -14 4175
-2 433 59 808 375 944 797 59 183 56 51 56 2272 0 1125 -4 2069 -8 2099 -39
249 -152 475 -327 651 -177 180 -378 286 -630 334 -64 13 -381 15 -2106 15
-1117 1 -2033 -1 -2035 -3z"/>
</g>
</svg>
